M48
; DRILL file {KiCad 9.0.5} date 2026-02-22T11:21:07+0100
; FORMAT={-:-/ absolute / metric / decimal}
; #@! TF.CreationDate,2026-02-22T11:21:07+01:00
; #@! TF.GenerationSoftware,Kicad,Pcbnew,9.0.5
; #@! TF.FileFunction,MixedPlating,1,2
FMAT,2
METRIC
; #@! TA.AperFunction,Plated,PTH,ViaDrill
T1C0.300
; #@! TA.AperFunction,Plated,PTH,ViaDrill
T2C0.635
; #@! TA.AperFunction,Plated,PTH,ComponentDrill
T3C1.000
; #@! TA.AperFunction,NonPlated,NPTH,ComponentDrill
T4C2.000
%
G90
G05
T1
X161.0Y-109.5
X169.5Y-105.5
T2
X135.0Y-90.0
X137.0Y-90.0
X145.0Y-90.0
X147.0Y-90.0
X155.0Y-90.0
X157.0Y-90.0
X165.0Y-90.0
X167.0Y-90.0
T3
X133.0Y-76.0
X133.0Y-78.54
X133.0Y-81.08
X136.34Y-105.5
X138.88Y-105.5
X139.0Y-76.0
X139.0Y-78.54
X139.0Y-81.08
X141.42Y-105.5
X143.0Y-76.0
X143.0Y-78.54
X143.0Y-81.08
X143.96Y-105.5
X146.5Y-105.5
X149.0Y-76.0
X149.0Y-78.54
X149.0Y-81.08
X149.04Y-105.5
X153.0Y-76.0
X153.0Y-78.54
X153.0Y-81.08
X159.0Y-76.0
X159.0Y-78.54
X159.0Y-81.08
X163.0Y-76.0
X163.0Y-78.54
X163.0Y-81.08
X169.0Y-76.0
X169.0Y-78.54
X169.0Y-81.08
T4
X131.5Y-109.5
X170.5Y-109.5
M30
