G04 #@! TF.GenerationSoftware,KiCad,Pcbnew,9.0.5*
G04 #@! TF.CreationDate,2026-02-22T11:20:26+01:00*
G04 #@! TF.ProjectId,Tiny contacts 0_0,54696e79-2063-46f6-9e74-616374732030,rev?*
G04 #@! TF.SameCoordinates,Original*
G04 #@! TF.FileFunction,Paste,Top*
G04 #@! TF.FilePolarity,Positive*
%FSLAX46Y46*%
G04 Gerber Fmt 4.6, Leading zero omitted, Abs format (unit mm)*
G04 Created by KiCad (PCBNEW 9.0.5) date 2026-02-22 11:20:26*
%MOMM*%
%LPD*%
G01*
G04 APERTURE LIST*
G04 Aperture macros list*
%AMRoundRect*
0 Rectangle with rounded corners*
0 $1 Rounding radius*
0 $2 $3 $4 $5 $6 $7 $8 $9 X,Y pos of 4 corners*
0 Add a 4 corners polygon primitive as box body*
4,1,4,$2,$3,$4,$5,$6,$7,$8,$9,$2,$3,0*
0 Add four circle primitives for the rounded corners*
1,1,$1+$1,$2,$3*
1,1,$1+$1,$4,$5*
1,1,$1+$1,$6,$7*
1,1,$1+$1,$8,$9*
0 Add four rect primitives between the rounded corners*
20,1,$1+$1,$2,$3,$4,$5,0*
20,1,$1+$1,$4,$5,$6,$7,0*
20,1,$1+$1,$6,$7,$8,$9,0*
20,1,$1+$1,$8,$9,$2,$3,0*%
G04 Aperture macros list end*
%ADD10R,1.800000X0.800000*%
%ADD11RoundRect,0.250000X0.312500X0.625000X-0.312500X0.625000X-0.312500X-0.625000X0.312500X-0.625000X0*%
%ADD12RoundRect,0.150000X0.150000X-0.825000X0.150000X0.825000X-0.150000X0.825000X-0.150000X-0.825000X0*%
%ADD13RoundRect,0.250000X-0.375000X-0.625000X0.375000X-0.625000X0.375000X0.625000X-0.375000X0.625000X0*%
G04 APERTURE END LIST*
D10*
G04 #@! TO.C,K1*
X140000000Y-93600000D03*
X140000000Y-90400000D03*
X140000000Y-88200000D03*
X140000000Y-86000000D03*
X133000000Y-86000000D03*
X133000000Y-88200000D03*
X133000000Y-90400000D03*
X133000000Y-93600000D03*
G04 #@! TD*
D11*
G04 #@! TO.C,R4*
X170462500Y-97000000D03*
X167537500Y-97000000D03*
G04 #@! TD*
D10*
G04 #@! TO.C,K4*
X170000000Y-93600000D03*
X170000000Y-90400000D03*
X170000000Y-88200000D03*
X170000000Y-86000000D03*
X163000000Y-86000000D03*
X163000000Y-88200000D03*
X163000000Y-90400000D03*
X163000000Y-93600000D03*
G04 #@! TD*
D12*
G04 #@! TO.C,U0*
X158555000Y-107475000D03*
X159825000Y-107475000D03*
X161095000Y-107475000D03*
X162365000Y-107475000D03*
X163635000Y-107475000D03*
X164905000Y-107475000D03*
X166175000Y-107475000D03*
X167445000Y-107475000D03*
X167445000Y-102525000D03*
X166175000Y-102525000D03*
X164905000Y-102525000D03*
X163635000Y-102525000D03*
X162365000Y-102525000D03*
X161095000Y-102525000D03*
X159825000Y-102525000D03*
X158555000Y-102525000D03*
G04 #@! TD*
D13*
G04 #@! TO.C,D4*
X162600000Y-97000000D03*
X165400000Y-97000000D03*
G04 #@! TD*
D11*
G04 #@! TO.C,R2*
X150462500Y-97000000D03*
X147537500Y-97000000D03*
G04 #@! TD*
D13*
G04 #@! TO.C,D3*
X152600000Y-97000000D03*
X155400000Y-97000000D03*
G04 #@! TD*
D11*
G04 #@! TO.C,R1*
X140462500Y-97000000D03*
X137537500Y-97000000D03*
G04 #@! TD*
D10*
G04 #@! TO.C,K2*
X150000000Y-93600000D03*
X150000000Y-90400000D03*
X150000000Y-88200000D03*
X150000000Y-86000000D03*
X143000000Y-86000000D03*
X143000000Y-88200000D03*
X143000000Y-90400000D03*
X143000000Y-93600000D03*
G04 #@! TD*
D13*
G04 #@! TO.C,D1*
X132600000Y-97000000D03*
X135400000Y-97000000D03*
G04 #@! TD*
G04 #@! TO.C,D2*
X142600000Y-97000000D03*
X145400000Y-97000000D03*
G04 #@! TD*
D10*
G04 #@! TO.C,K3*
X160000000Y-93600000D03*
X160000000Y-90400000D03*
X160000000Y-88200000D03*
X160000000Y-86000000D03*
X153000000Y-86000000D03*
X153000000Y-88200000D03*
X153000000Y-90400000D03*
X153000000Y-93600000D03*
G04 #@! TD*
D11*
G04 #@! TO.C,R3*
X160462500Y-97000000D03*
X157537500Y-97000000D03*
G04 #@! TD*
M02*
