G04 #@! TF.GenerationSoftware,KiCad,Pcbnew,9.0.5*
G04 #@! TF.CreationDate,2026-02-22T11:20:26+01:00*
G04 #@! TF.ProjectId,Tiny contacts 0_0,54696e79-2063-46f6-9e74-616374732030,rev?*
G04 #@! TF.SameCoordinates,Original*
G04 #@! TF.FileFunction,Legend,Top*
G04 #@! TF.FilePolarity,Positive*
%FSLAX46Y46*%
G04 Gerber Fmt 4.6, Leading zero omitted, Abs format (unit mm)*
G04 Created by KiCad (PCBNEW 9.0.5) date 2026-02-22 11:20:26*
%MOMM*%
%LPD*%
G01*
G04 APERTURE LIST*
%ADD10C,0.100000*%
%ADD11C,0.150000*%
%ADD12C,0.120000*%
G04 APERTURE END LIST*
D10*
X169000000Y-84000000D02*
X167000000Y-84000000D01*
X159000000Y-84000000D02*
X157000000Y-84000000D01*
X163000000Y-84000000D02*
X164500000Y-84000000D01*
X163000000Y-83000000D02*
X163000000Y-84000000D01*
X159000000Y-83000000D02*
X159000000Y-84000000D01*
X139000000Y-84000000D02*
X137000000Y-84000000D01*
X153000000Y-84000000D02*
X154500000Y-84000000D01*
X143000000Y-83000000D02*
X143000000Y-84000000D01*
X139000000Y-83000000D02*
X139000000Y-84000000D01*
X133000000Y-84000000D02*
X134500000Y-84000000D01*
X149000000Y-84000000D02*
X147000000Y-84000000D01*
X149000000Y-83000000D02*
X149000000Y-84000000D01*
X143000000Y-84000000D02*
X144500000Y-84000000D01*
X169000000Y-83000000D02*
X169000000Y-84000000D01*
X153000000Y-83000000D02*
X153000000Y-84000000D01*
X133000000Y-83000000D02*
X133000000Y-84000000D01*
D11*
X135214286Y-76454819D02*
X135214286Y-75454819D01*
X135214286Y-75454819D02*
X135785714Y-76454819D01*
X135785714Y-76454819D02*
X135785714Y-75454819D01*
X136833333Y-76359580D02*
X136785714Y-76407200D01*
X136785714Y-76407200D02*
X136642857Y-76454819D01*
X136642857Y-76454819D02*
X136547619Y-76454819D01*
X136547619Y-76454819D02*
X136404762Y-76407200D01*
X136404762Y-76407200D02*
X136309524Y-76311961D01*
X136309524Y-76311961D02*
X136261905Y-76216723D01*
X136261905Y-76216723D02*
X136214286Y-76026247D01*
X136214286Y-76026247D02*
X136214286Y-75883390D01*
X136214286Y-75883390D02*
X136261905Y-75692914D01*
X136261905Y-75692914D02*
X136309524Y-75597676D01*
X136309524Y-75597676D02*
X136404762Y-75502438D01*
X136404762Y-75502438D02*
X136547619Y-75454819D01*
X136547619Y-75454819D02*
X136642857Y-75454819D01*
X136642857Y-75454819D02*
X136785714Y-75502438D01*
X136785714Y-75502438D02*
X136833333Y-75550057D01*
X146309523Y-78859580D02*
X146261904Y-78907200D01*
X146261904Y-78907200D02*
X146119047Y-78954819D01*
X146119047Y-78954819D02*
X146023809Y-78954819D01*
X146023809Y-78954819D02*
X145880952Y-78907200D01*
X145880952Y-78907200D02*
X145785714Y-78811961D01*
X145785714Y-78811961D02*
X145738095Y-78716723D01*
X145738095Y-78716723D02*
X145690476Y-78526247D01*
X145690476Y-78526247D02*
X145690476Y-78383390D01*
X145690476Y-78383390D02*
X145738095Y-78192914D01*
X145738095Y-78192914D02*
X145785714Y-78097676D01*
X145785714Y-78097676D02*
X145880952Y-78002438D01*
X145880952Y-78002438D02*
X146023809Y-77954819D01*
X146023809Y-77954819D02*
X146119047Y-77954819D01*
X146119047Y-77954819D02*
X146261904Y-78002438D01*
X146261904Y-78002438D02*
X146309523Y-78050057D01*
X165214286Y-76454819D02*
X165214286Y-75454819D01*
X165214286Y-75454819D02*
X165785714Y-76454819D01*
X165785714Y-76454819D02*
X165785714Y-75454819D01*
X166833333Y-76359580D02*
X166785714Y-76407200D01*
X166785714Y-76407200D02*
X166642857Y-76454819D01*
X166642857Y-76454819D02*
X166547619Y-76454819D01*
X166547619Y-76454819D02*
X166404762Y-76407200D01*
X166404762Y-76407200D02*
X166309524Y-76311961D01*
X166309524Y-76311961D02*
X166261905Y-76216723D01*
X166261905Y-76216723D02*
X166214286Y-76026247D01*
X166214286Y-76026247D02*
X166214286Y-75883390D01*
X166214286Y-75883390D02*
X166261905Y-75692914D01*
X166261905Y-75692914D02*
X166309524Y-75597676D01*
X166309524Y-75597676D02*
X166404762Y-75502438D01*
X166404762Y-75502438D02*
X166547619Y-75454819D01*
X166547619Y-75454819D02*
X166642857Y-75454819D01*
X166642857Y-75454819D02*
X166785714Y-75502438D01*
X166785714Y-75502438D02*
X166833333Y-75550057D01*
X136309523Y-78859580D02*
X136261904Y-78907200D01*
X136261904Y-78907200D02*
X136119047Y-78954819D01*
X136119047Y-78954819D02*
X136023809Y-78954819D01*
X136023809Y-78954819D02*
X135880952Y-78907200D01*
X135880952Y-78907200D02*
X135785714Y-78811961D01*
X135785714Y-78811961D02*
X135738095Y-78716723D01*
X135738095Y-78716723D02*
X135690476Y-78526247D01*
X135690476Y-78526247D02*
X135690476Y-78383390D01*
X135690476Y-78383390D02*
X135738095Y-78192914D01*
X135738095Y-78192914D02*
X135785714Y-78097676D01*
X135785714Y-78097676D02*
X135880952Y-78002438D01*
X135880952Y-78002438D02*
X136023809Y-77954819D01*
X136023809Y-77954819D02*
X136119047Y-77954819D01*
X136119047Y-77954819D02*
X136261904Y-78002438D01*
X136261904Y-78002438D02*
X136309523Y-78050057D01*
X155190476Y-81454819D02*
X155190476Y-80454819D01*
X155190476Y-80454819D02*
X155761904Y-81454819D01*
X155761904Y-81454819D02*
X155761904Y-80454819D01*
X156428571Y-80454819D02*
X156619047Y-80454819D01*
X156619047Y-80454819D02*
X156714285Y-80502438D01*
X156714285Y-80502438D02*
X156809523Y-80597676D01*
X156809523Y-80597676D02*
X156857142Y-80788152D01*
X156857142Y-80788152D02*
X156857142Y-81121485D01*
X156857142Y-81121485D02*
X156809523Y-81311961D01*
X156809523Y-81311961D02*
X156714285Y-81407200D01*
X156714285Y-81407200D02*
X156619047Y-81454819D01*
X156619047Y-81454819D02*
X156428571Y-81454819D01*
X156428571Y-81454819D02*
X156333333Y-81407200D01*
X156333333Y-81407200D02*
X156238095Y-81311961D01*
X156238095Y-81311961D02*
X156190476Y-81121485D01*
X156190476Y-81121485D02*
X156190476Y-80788152D01*
X156190476Y-80788152D02*
X156238095Y-80597676D01*
X156238095Y-80597676D02*
X156333333Y-80502438D01*
X156333333Y-80502438D02*
X156428571Y-80454819D01*
X166309523Y-78859580D02*
X166261904Y-78907200D01*
X166261904Y-78907200D02*
X166119047Y-78954819D01*
X166119047Y-78954819D02*
X166023809Y-78954819D01*
X166023809Y-78954819D02*
X165880952Y-78907200D01*
X165880952Y-78907200D02*
X165785714Y-78811961D01*
X165785714Y-78811961D02*
X165738095Y-78716723D01*
X165738095Y-78716723D02*
X165690476Y-78526247D01*
X165690476Y-78526247D02*
X165690476Y-78383390D01*
X165690476Y-78383390D02*
X165738095Y-78192914D01*
X165738095Y-78192914D02*
X165785714Y-78097676D01*
X165785714Y-78097676D02*
X165880952Y-78002438D01*
X165880952Y-78002438D02*
X166023809Y-77954819D01*
X166023809Y-77954819D02*
X166119047Y-77954819D01*
X166119047Y-77954819D02*
X166261904Y-78002438D01*
X166261904Y-78002438D02*
X166309523Y-78050057D01*
X145214286Y-76454819D02*
X145214286Y-75454819D01*
X145214286Y-75454819D02*
X145785714Y-76454819D01*
X145785714Y-76454819D02*
X145785714Y-75454819D01*
X146833333Y-76359580D02*
X146785714Y-76407200D01*
X146785714Y-76407200D02*
X146642857Y-76454819D01*
X146642857Y-76454819D02*
X146547619Y-76454819D01*
X146547619Y-76454819D02*
X146404762Y-76407200D01*
X146404762Y-76407200D02*
X146309524Y-76311961D01*
X146309524Y-76311961D02*
X146261905Y-76216723D01*
X146261905Y-76216723D02*
X146214286Y-76026247D01*
X146214286Y-76026247D02*
X146214286Y-75883390D01*
X146214286Y-75883390D02*
X146261905Y-75692914D01*
X146261905Y-75692914D02*
X146309524Y-75597676D01*
X146309524Y-75597676D02*
X146404762Y-75502438D01*
X146404762Y-75502438D02*
X146547619Y-75454819D01*
X146547619Y-75454819D02*
X146642857Y-75454819D01*
X146642857Y-75454819D02*
X146785714Y-75502438D01*
X146785714Y-75502438D02*
X146833333Y-75550057D01*
X155214286Y-76454819D02*
X155214286Y-75454819D01*
X155214286Y-75454819D02*
X155785714Y-76454819D01*
X155785714Y-76454819D02*
X155785714Y-75454819D01*
X156833333Y-76359580D02*
X156785714Y-76407200D01*
X156785714Y-76407200D02*
X156642857Y-76454819D01*
X156642857Y-76454819D02*
X156547619Y-76454819D01*
X156547619Y-76454819D02*
X156404762Y-76407200D01*
X156404762Y-76407200D02*
X156309524Y-76311961D01*
X156309524Y-76311961D02*
X156261905Y-76216723D01*
X156261905Y-76216723D02*
X156214286Y-76026247D01*
X156214286Y-76026247D02*
X156214286Y-75883390D01*
X156214286Y-75883390D02*
X156261905Y-75692914D01*
X156261905Y-75692914D02*
X156309524Y-75597676D01*
X156309524Y-75597676D02*
X156404762Y-75502438D01*
X156404762Y-75502438D02*
X156547619Y-75454819D01*
X156547619Y-75454819D02*
X156642857Y-75454819D01*
X156642857Y-75454819D02*
X156785714Y-75502438D01*
X156785714Y-75502438D02*
X156833333Y-75550057D01*
X165190476Y-81454819D02*
X165190476Y-80454819D01*
X165190476Y-80454819D02*
X165761904Y-81454819D01*
X165761904Y-81454819D02*
X165761904Y-80454819D01*
X166428571Y-80454819D02*
X166619047Y-80454819D01*
X166619047Y-80454819D02*
X166714285Y-80502438D01*
X166714285Y-80502438D02*
X166809523Y-80597676D01*
X166809523Y-80597676D02*
X166857142Y-80788152D01*
X166857142Y-80788152D02*
X166857142Y-81121485D01*
X166857142Y-81121485D02*
X166809523Y-81311961D01*
X166809523Y-81311961D02*
X166714285Y-81407200D01*
X166714285Y-81407200D02*
X166619047Y-81454819D01*
X166619047Y-81454819D02*
X166428571Y-81454819D01*
X166428571Y-81454819D02*
X166333333Y-81407200D01*
X166333333Y-81407200D02*
X166238095Y-81311961D01*
X166238095Y-81311961D02*
X166190476Y-81121485D01*
X166190476Y-81121485D02*
X166190476Y-80788152D01*
X166190476Y-80788152D02*
X166238095Y-80597676D01*
X166238095Y-80597676D02*
X166333333Y-80502438D01*
X166333333Y-80502438D02*
X166428571Y-80454819D01*
X156309523Y-78859580D02*
X156261904Y-78907200D01*
X156261904Y-78907200D02*
X156119047Y-78954819D01*
X156119047Y-78954819D02*
X156023809Y-78954819D01*
X156023809Y-78954819D02*
X155880952Y-78907200D01*
X155880952Y-78907200D02*
X155785714Y-78811961D01*
X155785714Y-78811961D02*
X155738095Y-78716723D01*
X155738095Y-78716723D02*
X155690476Y-78526247D01*
X155690476Y-78526247D02*
X155690476Y-78383390D01*
X155690476Y-78383390D02*
X155738095Y-78192914D01*
X155738095Y-78192914D02*
X155785714Y-78097676D01*
X155785714Y-78097676D02*
X155880952Y-78002438D01*
X155880952Y-78002438D02*
X156023809Y-77954819D01*
X156023809Y-77954819D02*
X156119047Y-77954819D01*
X156119047Y-77954819D02*
X156261904Y-78002438D01*
X156261904Y-78002438D02*
X156309523Y-78050057D01*
D10*
X134661027Y-108872419D02*
X135232455Y-108872419D01*
X134946741Y-109872419D02*
X134946741Y-108872419D01*
X135565789Y-109872419D02*
X135565789Y-109205752D01*
X135565789Y-108872419D02*
X135518170Y-108920038D01*
X135518170Y-108920038D02*
X135565789Y-108967657D01*
X135565789Y-108967657D02*
X135613408Y-108920038D01*
X135613408Y-108920038D02*
X135565789Y-108872419D01*
X135565789Y-108872419D02*
X135565789Y-108967657D01*
X136041979Y-109205752D02*
X136041979Y-109872419D01*
X136041979Y-109300990D02*
X136089598Y-109253371D01*
X136089598Y-109253371D02*
X136184836Y-109205752D01*
X136184836Y-109205752D02*
X136327693Y-109205752D01*
X136327693Y-109205752D02*
X136422931Y-109253371D01*
X136422931Y-109253371D02*
X136470550Y-109348609D01*
X136470550Y-109348609D02*
X136470550Y-109872419D01*
X136851503Y-109205752D02*
X137089598Y-109872419D01*
X137327693Y-109205752D02*
X137089598Y-109872419D01*
X137089598Y-109872419D02*
X136994360Y-110110514D01*
X136994360Y-110110514D02*
X136946741Y-110158133D01*
X136946741Y-110158133D02*
X136851503Y-110205752D01*
X138899122Y-109824800D02*
X138803884Y-109872419D01*
X138803884Y-109872419D02*
X138613408Y-109872419D01*
X138613408Y-109872419D02*
X138518170Y-109824800D01*
X138518170Y-109824800D02*
X138470551Y-109777180D01*
X138470551Y-109777180D02*
X138422932Y-109681942D01*
X138422932Y-109681942D02*
X138422932Y-109396228D01*
X138422932Y-109396228D02*
X138470551Y-109300990D01*
X138470551Y-109300990D02*
X138518170Y-109253371D01*
X138518170Y-109253371D02*
X138613408Y-109205752D01*
X138613408Y-109205752D02*
X138803884Y-109205752D01*
X138803884Y-109205752D02*
X138899122Y-109253371D01*
X139470551Y-109872419D02*
X139375313Y-109824800D01*
X139375313Y-109824800D02*
X139327694Y-109777180D01*
X139327694Y-109777180D02*
X139280075Y-109681942D01*
X139280075Y-109681942D02*
X139280075Y-109396228D01*
X139280075Y-109396228D02*
X139327694Y-109300990D01*
X139327694Y-109300990D02*
X139375313Y-109253371D01*
X139375313Y-109253371D02*
X139470551Y-109205752D01*
X139470551Y-109205752D02*
X139613408Y-109205752D01*
X139613408Y-109205752D02*
X139708646Y-109253371D01*
X139708646Y-109253371D02*
X139756265Y-109300990D01*
X139756265Y-109300990D02*
X139803884Y-109396228D01*
X139803884Y-109396228D02*
X139803884Y-109681942D01*
X139803884Y-109681942D02*
X139756265Y-109777180D01*
X139756265Y-109777180D02*
X139708646Y-109824800D01*
X139708646Y-109824800D02*
X139613408Y-109872419D01*
X139613408Y-109872419D02*
X139470551Y-109872419D01*
X140232456Y-109205752D02*
X140232456Y-109872419D01*
X140232456Y-109300990D02*
X140280075Y-109253371D01*
X140280075Y-109253371D02*
X140375313Y-109205752D01*
X140375313Y-109205752D02*
X140518170Y-109205752D01*
X140518170Y-109205752D02*
X140613408Y-109253371D01*
X140613408Y-109253371D02*
X140661027Y-109348609D01*
X140661027Y-109348609D02*
X140661027Y-109872419D01*
X140994361Y-109205752D02*
X141375313Y-109205752D01*
X141137218Y-108872419D02*
X141137218Y-109729561D01*
X141137218Y-109729561D02*
X141184837Y-109824800D01*
X141184837Y-109824800D02*
X141280075Y-109872419D01*
X141280075Y-109872419D02*
X141375313Y-109872419D01*
X142137218Y-109872419D02*
X142137218Y-109348609D01*
X142137218Y-109348609D02*
X142089599Y-109253371D01*
X142089599Y-109253371D02*
X141994361Y-109205752D01*
X141994361Y-109205752D02*
X141803885Y-109205752D01*
X141803885Y-109205752D02*
X141708647Y-109253371D01*
X142137218Y-109824800D02*
X142041980Y-109872419D01*
X142041980Y-109872419D02*
X141803885Y-109872419D01*
X141803885Y-109872419D02*
X141708647Y-109824800D01*
X141708647Y-109824800D02*
X141661028Y-109729561D01*
X141661028Y-109729561D02*
X141661028Y-109634323D01*
X141661028Y-109634323D02*
X141708647Y-109539085D01*
X141708647Y-109539085D02*
X141803885Y-109491466D01*
X141803885Y-109491466D02*
X142041980Y-109491466D01*
X142041980Y-109491466D02*
X142137218Y-109443847D01*
X143041980Y-109824800D02*
X142946742Y-109872419D01*
X142946742Y-109872419D02*
X142756266Y-109872419D01*
X142756266Y-109872419D02*
X142661028Y-109824800D01*
X142661028Y-109824800D02*
X142613409Y-109777180D01*
X142613409Y-109777180D02*
X142565790Y-109681942D01*
X142565790Y-109681942D02*
X142565790Y-109396228D01*
X142565790Y-109396228D02*
X142613409Y-109300990D01*
X142613409Y-109300990D02*
X142661028Y-109253371D01*
X142661028Y-109253371D02*
X142756266Y-109205752D01*
X142756266Y-109205752D02*
X142946742Y-109205752D01*
X142946742Y-109205752D02*
X143041980Y-109253371D01*
X143327695Y-109205752D02*
X143708647Y-109205752D01*
X143470552Y-108872419D02*
X143470552Y-109729561D01*
X143470552Y-109729561D02*
X143518171Y-109824800D01*
X143518171Y-109824800D02*
X143613409Y-109872419D01*
X143613409Y-109872419D02*
X143708647Y-109872419D01*
X143994362Y-109824800D02*
X144089600Y-109872419D01*
X144089600Y-109872419D02*
X144280076Y-109872419D01*
X144280076Y-109872419D02*
X144375314Y-109824800D01*
X144375314Y-109824800D02*
X144422933Y-109729561D01*
X144422933Y-109729561D02*
X144422933Y-109681942D01*
X144422933Y-109681942D02*
X144375314Y-109586704D01*
X144375314Y-109586704D02*
X144280076Y-109539085D01*
X144280076Y-109539085D02*
X144137219Y-109539085D01*
X144137219Y-109539085D02*
X144041981Y-109491466D01*
X144041981Y-109491466D02*
X143994362Y-109396228D01*
X143994362Y-109396228D02*
X143994362Y-109348609D01*
X143994362Y-109348609D02*
X144041981Y-109253371D01*
X144041981Y-109253371D02*
X144137219Y-109205752D01*
X144137219Y-109205752D02*
X144280076Y-109205752D01*
X144280076Y-109205752D02*
X144375314Y-109253371D01*
X145803886Y-108872419D02*
X145899124Y-108872419D01*
X145899124Y-108872419D02*
X145994362Y-108920038D01*
X145994362Y-108920038D02*
X146041981Y-108967657D01*
X146041981Y-108967657D02*
X146089600Y-109062895D01*
X146089600Y-109062895D02*
X146137219Y-109253371D01*
X146137219Y-109253371D02*
X146137219Y-109491466D01*
X146137219Y-109491466D02*
X146089600Y-109681942D01*
X146089600Y-109681942D02*
X146041981Y-109777180D01*
X146041981Y-109777180D02*
X145994362Y-109824800D01*
X145994362Y-109824800D02*
X145899124Y-109872419D01*
X145899124Y-109872419D02*
X145803886Y-109872419D01*
X145803886Y-109872419D02*
X145708648Y-109824800D01*
X145708648Y-109824800D02*
X145661029Y-109777180D01*
X145661029Y-109777180D02*
X145613410Y-109681942D01*
X145613410Y-109681942D02*
X145565791Y-109491466D01*
X145565791Y-109491466D02*
X145565791Y-109253371D01*
X145565791Y-109253371D02*
X145613410Y-109062895D01*
X145613410Y-109062895D02*
X145661029Y-108967657D01*
X145661029Y-108967657D02*
X145708648Y-108920038D01*
X145708648Y-108920038D02*
X145803886Y-108872419D01*
X146565791Y-109777180D02*
X146613410Y-109824800D01*
X146613410Y-109824800D02*
X146565791Y-109872419D01*
X146565791Y-109872419D02*
X146518172Y-109824800D01*
X146518172Y-109824800D02*
X146565791Y-109777180D01*
X146565791Y-109777180D02*
X146565791Y-109872419D01*
X147232457Y-108872419D02*
X147327695Y-108872419D01*
X147327695Y-108872419D02*
X147422933Y-108920038D01*
X147422933Y-108920038D02*
X147470552Y-108967657D01*
X147470552Y-108967657D02*
X147518171Y-109062895D01*
X147518171Y-109062895D02*
X147565790Y-109253371D01*
X147565790Y-109253371D02*
X147565790Y-109491466D01*
X147565790Y-109491466D02*
X147518171Y-109681942D01*
X147518171Y-109681942D02*
X147470552Y-109777180D01*
X147470552Y-109777180D02*
X147422933Y-109824800D01*
X147422933Y-109824800D02*
X147327695Y-109872419D01*
X147327695Y-109872419D02*
X147232457Y-109872419D01*
X147232457Y-109872419D02*
X147137219Y-109824800D01*
X147137219Y-109824800D02*
X147089600Y-109777180D01*
X147089600Y-109777180D02*
X147041981Y-109681942D01*
X147041981Y-109681942D02*
X146994362Y-109491466D01*
X146994362Y-109491466D02*
X146994362Y-109253371D01*
X146994362Y-109253371D02*
X147041981Y-109062895D01*
X147041981Y-109062895D02*
X147089600Y-108967657D01*
X147089600Y-108967657D02*
X147137219Y-108920038D01*
X147137219Y-108920038D02*
X147232457Y-108872419D01*
D11*
X135190476Y-81454819D02*
X135190476Y-80454819D01*
X135190476Y-80454819D02*
X135761904Y-81454819D01*
X135761904Y-81454819D02*
X135761904Y-80454819D01*
X136428571Y-80454819D02*
X136619047Y-80454819D01*
X136619047Y-80454819D02*
X136714285Y-80502438D01*
X136714285Y-80502438D02*
X136809523Y-80597676D01*
X136809523Y-80597676D02*
X136857142Y-80788152D01*
X136857142Y-80788152D02*
X136857142Y-81121485D01*
X136857142Y-81121485D02*
X136809523Y-81311961D01*
X136809523Y-81311961D02*
X136714285Y-81407200D01*
X136714285Y-81407200D02*
X136619047Y-81454819D01*
X136619047Y-81454819D02*
X136428571Y-81454819D01*
X136428571Y-81454819D02*
X136333333Y-81407200D01*
X136333333Y-81407200D02*
X136238095Y-81311961D01*
X136238095Y-81311961D02*
X136190476Y-81121485D01*
X136190476Y-81121485D02*
X136190476Y-80788152D01*
X136190476Y-80788152D02*
X136238095Y-80597676D01*
X136238095Y-80597676D02*
X136333333Y-80502438D01*
X136333333Y-80502438D02*
X136428571Y-80454819D01*
X145190476Y-81454819D02*
X145190476Y-80454819D01*
X145190476Y-80454819D02*
X145761904Y-81454819D01*
X145761904Y-81454819D02*
X145761904Y-80454819D01*
X146428571Y-80454819D02*
X146619047Y-80454819D01*
X146619047Y-80454819D02*
X146714285Y-80502438D01*
X146714285Y-80502438D02*
X146809523Y-80597676D01*
X146809523Y-80597676D02*
X146857142Y-80788152D01*
X146857142Y-80788152D02*
X146857142Y-81121485D01*
X146857142Y-81121485D02*
X146809523Y-81311961D01*
X146809523Y-81311961D02*
X146714285Y-81407200D01*
X146714285Y-81407200D02*
X146619047Y-81454819D01*
X146619047Y-81454819D02*
X146428571Y-81454819D01*
X146428571Y-81454819D02*
X146333333Y-81407200D01*
X146333333Y-81407200D02*
X146238095Y-81311961D01*
X146238095Y-81311961D02*
X146190476Y-81121485D01*
X146190476Y-81121485D02*
X146190476Y-80788152D01*
X146190476Y-80788152D02*
X146238095Y-80597676D01*
X146238095Y-80597676D02*
X146333333Y-80502438D01*
X146333333Y-80502438D02*
X146428571Y-80454819D01*
X135261905Y-84454819D02*
X135261905Y-83454819D01*
X135833333Y-84454819D02*
X135404762Y-83883390D01*
X135833333Y-83454819D02*
X135261905Y-84026247D01*
X136785714Y-84454819D02*
X136214286Y-84454819D01*
X136500000Y-84454819D02*
X136500000Y-83454819D01*
X136500000Y-83454819D02*
X136404762Y-83597676D01*
X136404762Y-83597676D02*
X136309524Y-83692914D01*
X136309524Y-83692914D02*
X136214286Y-83740533D01*
X168833333Y-99454819D02*
X168500000Y-98978628D01*
X168261905Y-99454819D02*
X168261905Y-98454819D01*
X168261905Y-98454819D02*
X168642857Y-98454819D01*
X168642857Y-98454819D02*
X168738095Y-98502438D01*
X168738095Y-98502438D02*
X168785714Y-98550057D01*
X168785714Y-98550057D02*
X168833333Y-98645295D01*
X168833333Y-98645295D02*
X168833333Y-98788152D01*
X168833333Y-98788152D02*
X168785714Y-98883390D01*
X168785714Y-98883390D02*
X168738095Y-98931009D01*
X168738095Y-98931009D02*
X168642857Y-98978628D01*
X168642857Y-98978628D02*
X168261905Y-98978628D01*
X169690476Y-98788152D02*
X169690476Y-99454819D01*
X169452381Y-98407200D02*
X169214286Y-99121485D01*
X169214286Y-99121485D02*
X169833333Y-99121485D01*
X133454819Y-106333333D02*
X134169104Y-106333333D01*
X134169104Y-106333333D02*
X134311961Y-106380952D01*
X134311961Y-106380952D02*
X134407200Y-106476190D01*
X134407200Y-106476190D02*
X134454819Y-106619047D01*
X134454819Y-106619047D02*
X134454819Y-106714285D01*
X133454819Y-105666666D02*
X133454819Y-105571428D01*
X133454819Y-105571428D02*
X133502438Y-105476190D01*
X133502438Y-105476190D02*
X133550057Y-105428571D01*
X133550057Y-105428571D02*
X133645295Y-105380952D01*
X133645295Y-105380952D02*
X133835771Y-105333333D01*
X133835771Y-105333333D02*
X134073866Y-105333333D01*
X134073866Y-105333333D02*
X134264342Y-105380952D01*
X134264342Y-105380952D02*
X134359580Y-105428571D01*
X134359580Y-105428571D02*
X134407200Y-105476190D01*
X134407200Y-105476190D02*
X134454819Y-105571428D01*
X134454819Y-105571428D02*
X134454819Y-105666666D01*
X134454819Y-105666666D02*
X134407200Y-105761904D01*
X134407200Y-105761904D02*
X134359580Y-105809523D01*
X134359580Y-105809523D02*
X134264342Y-105857142D01*
X134264342Y-105857142D02*
X134073866Y-105904761D01*
X134073866Y-105904761D02*
X133835771Y-105904761D01*
X133835771Y-105904761D02*
X133645295Y-105857142D01*
X133645295Y-105857142D02*
X133550057Y-105809523D01*
X133550057Y-105809523D02*
X133502438Y-105761904D01*
X133502438Y-105761904D02*
X133454819Y-105666666D01*
X165261905Y-84454819D02*
X165261905Y-83454819D01*
X165833333Y-84454819D02*
X165404762Y-83883390D01*
X165833333Y-83454819D02*
X165261905Y-84026247D01*
X166690476Y-83788152D02*
X166690476Y-84454819D01*
X166452381Y-83407200D02*
X166214286Y-84121485D01*
X166214286Y-84121485D02*
X166833333Y-84121485D01*
X156554819Y-105761904D02*
X157364342Y-105761904D01*
X157364342Y-105761904D02*
X157459580Y-105714285D01*
X157459580Y-105714285D02*
X157507200Y-105666666D01*
X157507200Y-105666666D02*
X157554819Y-105571428D01*
X157554819Y-105571428D02*
X157554819Y-105380952D01*
X157554819Y-105380952D02*
X157507200Y-105285714D01*
X157507200Y-105285714D02*
X157459580Y-105238095D01*
X157459580Y-105238095D02*
X157364342Y-105190476D01*
X157364342Y-105190476D02*
X156554819Y-105190476D01*
X156554819Y-104523809D02*
X156554819Y-104428571D01*
X156554819Y-104428571D02*
X156602438Y-104333333D01*
X156602438Y-104333333D02*
X156650057Y-104285714D01*
X156650057Y-104285714D02*
X156745295Y-104238095D01*
X156745295Y-104238095D02*
X156935771Y-104190476D01*
X156935771Y-104190476D02*
X157173866Y-104190476D01*
X157173866Y-104190476D02*
X157364342Y-104238095D01*
X157364342Y-104238095D02*
X157459580Y-104285714D01*
X157459580Y-104285714D02*
X157507200Y-104333333D01*
X157507200Y-104333333D02*
X157554819Y-104428571D01*
X157554819Y-104428571D02*
X157554819Y-104523809D01*
X157554819Y-104523809D02*
X157507200Y-104619047D01*
X157507200Y-104619047D02*
X157459580Y-104666666D01*
X157459580Y-104666666D02*
X157364342Y-104714285D01*
X157364342Y-104714285D02*
X157173866Y-104761904D01*
X157173866Y-104761904D02*
X156935771Y-104761904D01*
X156935771Y-104761904D02*
X156745295Y-104714285D01*
X156745295Y-104714285D02*
X156650057Y-104666666D01*
X156650057Y-104666666D02*
X156602438Y-104619047D01*
X156602438Y-104619047D02*
X156554819Y-104523809D01*
X163261905Y-99454819D02*
X163261905Y-98454819D01*
X163261905Y-98454819D02*
X163500000Y-98454819D01*
X163500000Y-98454819D02*
X163642857Y-98502438D01*
X163642857Y-98502438D02*
X163738095Y-98597676D01*
X163738095Y-98597676D02*
X163785714Y-98692914D01*
X163785714Y-98692914D02*
X163833333Y-98883390D01*
X163833333Y-98883390D02*
X163833333Y-99026247D01*
X163833333Y-99026247D02*
X163785714Y-99216723D01*
X163785714Y-99216723D02*
X163738095Y-99311961D01*
X163738095Y-99311961D02*
X163642857Y-99407200D01*
X163642857Y-99407200D02*
X163500000Y-99454819D01*
X163500000Y-99454819D02*
X163261905Y-99454819D01*
X164690476Y-98788152D02*
X164690476Y-99454819D01*
X164452381Y-98407200D02*
X164214286Y-99121485D01*
X164214286Y-99121485D02*
X164833333Y-99121485D01*
X148833333Y-99454819D02*
X148500000Y-98978628D01*
X148261905Y-99454819D02*
X148261905Y-98454819D01*
X148261905Y-98454819D02*
X148642857Y-98454819D01*
X148642857Y-98454819D02*
X148738095Y-98502438D01*
X148738095Y-98502438D02*
X148785714Y-98550057D01*
X148785714Y-98550057D02*
X148833333Y-98645295D01*
X148833333Y-98645295D02*
X148833333Y-98788152D01*
X148833333Y-98788152D02*
X148785714Y-98883390D01*
X148785714Y-98883390D02*
X148738095Y-98931009D01*
X148738095Y-98931009D02*
X148642857Y-98978628D01*
X148642857Y-98978628D02*
X148261905Y-98978628D01*
X149214286Y-98550057D02*
X149261905Y-98502438D01*
X149261905Y-98502438D02*
X149357143Y-98454819D01*
X149357143Y-98454819D02*
X149595238Y-98454819D01*
X149595238Y-98454819D02*
X149690476Y-98502438D01*
X149690476Y-98502438D02*
X149738095Y-98550057D01*
X149738095Y-98550057D02*
X149785714Y-98645295D01*
X149785714Y-98645295D02*
X149785714Y-98740533D01*
X149785714Y-98740533D02*
X149738095Y-98883390D01*
X149738095Y-98883390D02*
X149166667Y-99454819D01*
X149166667Y-99454819D02*
X149785714Y-99454819D01*
X153261905Y-99454819D02*
X153261905Y-98454819D01*
X153261905Y-98454819D02*
X153500000Y-98454819D01*
X153500000Y-98454819D02*
X153642857Y-98502438D01*
X153642857Y-98502438D02*
X153738095Y-98597676D01*
X153738095Y-98597676D02*
X153785714Y-98692914D01*
X153785714Y-98692914D02*
X153833333Y-98883390D01*
X153833333Y-98883390D02*
X153833333Y-99026247D01*
X153833333Y-99026247D02*
X153785714Y-99216723D01*
X153785714Y-99216723D02*
X153738095Y-99311961D01*
X153738095Y-99311961D02*
X153642857Y-99407200D01*
X153642857Y-99407200D02*
X153500000Y-99454819D01*
X153500000Y-99454819D02*
X153261905Y-99454819D01*
X154166667Y-98454819D02*
X154785714Y-98454819D01*
X154785714Y-98454819D02*
X154452381Y-98835771D01*
X154452381Y-98835771D02*
X154595238Y-98835771D01*
X154595238Y-98835771D02*
X154690476Y-98883390D01*
X154690476Y-98883390D02*
X154738095Y-98931009D01*
X154738095Y-98931009D02*
X154785714Y-99026247D01*
X154785714Y-99026247D02*
X154785714Y-99264342D01*
X154785714Y-99264342D02*
X154738095Y-99359580D01*
X154738095Y-99359580D02*
X154690476Y-99407200D01*
X154690476Y-99407200D02*
X154595238Y-99454819D01*
X154595238Y-99454819D02*
X154309524Y-99454819D01*
X154309524Y-99454819D02*
X154214286Y-99407200D01*
X154214286Y-99407200D02*
X154166667Y-99359580D01*
X138833333Y-99454819D02*
X138500000Y-98978628D01*
X138261905Y-99454819D02*
X138261905Y-98454819D01*
X138261905Y-98454819D02*
X138642857Y-98454819D01*
X138642857Y-98454819D02*
X138738095Y-98502438D01*
X138738095Y-98502438D02*
X138785714Y-98550057D01*
X138785714Y-98550057D02*
X138833333Y-98645295D01*
X138833333Y-98645295D02*
X138833333Y-98788152D01*
X138833333Y-98788152D02*
X138785714Y-98883390D01*
X138785714Y-98883390D02*
X138738095Y-98931009D01*
X138738095Y-98931009D02*
X138642857Y-98978628D01*
X138642857Y-98978628D02*
X138261905Y-98978628D01*
X139785714Y-99454819D02*
X139214286Y-99454819D01*
X139500000Y-99454819D02*
X139500000Y-98454819D01*
X139500000Y-98454819D02*
X139404762Y-98597676D01*
X139404762Y-98597676D02*
X139309524Y-98692914D01*
X139309524Y-98692914D02*
X139214286Y-98740533D01*
X145261905Y-84454819D02*
X145261905Y-83454819D01*
X145833333Y-84454819D02*
X145404762Y-83883390D01*
X145833333Y-83454819D02*
X145261905Y-84026247D01*
X146214286Y-83550057D02*
X146261905Y-83502438D01*
X146261905Y-83502438D02*
X146357143Y-83454819D01*
X146357143Y-83454819D02*
X146595238Y-83454819D01*
X146595238Y-83454819D02*
X146690476Y-83502438D01*
X146690476Y-83502438D02*
X146738095Y-83550057D01*
X146738095Y-83550057D02*
X146785714Y-83645295D01*
X146785714Y-83645295D02*
X146785714Y-83740533D01*
X146785714Y-83740533D02*
X146738095Y-83883390D01*
X146738095Y-83883390D02*
X146166667Y-84454819D01*
X146166667Y-84454819D02*
X146785714Y-84454819D01*
X133261905Y-99454819D02*
X133261905Y-98454819D01*
X133261905Y-98454819D02*
X133500000Y-98454819D01*
X133500000Y-98454819D02*
X133642857Y-98502438D01*
X133642857Y-98502438D02*
X133738095Y-98597676D01*
X133738095Y-98597676D02*
X133785714Y-98692914D01*
X133785714Y-98692914D02*
X133833333Y-98883390D01*
X133833333Y-98883390D02*
X133833333Y-99026247D01*
X133833333Y-99026247D02*
X133785714Y-99216723D01*
X133785714Y-99216723D02*
X133738095Y-99311961D01*
X133738095Y-99311961D02*
X133642857Y-99407200D01*
X133642857Y-99407200D02*
X133500000Y-99454819D01*
X133500000Y-99454819D02*
X133261905Y-99454819D01*
X134785714Y-99454819D02*
X134214286Y-99454819D01*
X134500000Y-99454819D02*
X134500000Y-98454819D01*
X134500000Y-98454819D02*
X134404762Y-98597676D01*
X134404762Y-98597676D02*
X134309524Y-98692914D01*
X134309524Y-98692914D02*
X134214286Y-98740533D01*
X143261905Y-99454819D02*
X143261905Y-98454819D01*
X143261905Y-98454819D02*
X143500000Y-98454819D01*
X143500000Y-98454819D02*
X143642857Y-98502438D01*
X143642857Y-98502438D02*
X143738095Y-98597676D01*
X143738095Y-98597676D02*
X143785714Y-98692914D01*
X143785714Y-98692914D02*
X143833333Y-98883390D01*
X143833333Y-98883390D02*
X143833333Y-99026247D01*
X143833333Y-99026247D02*
X143785714Y-99216723D01*
X143785714Y-99216723D02*
X143738095Y-99311961D01*
X143738095Y-99311961D02*
X143642857Y-99407200D01*
X143642857Y-99407200D02*
X143500000Y-99454819D01*
X143500000Y-99454819D02*
X143261905Y-99454819D01*
X144214286Y-98550057D02*
X144261905Y-98502438D01*
X144261905Y-98502438D02*
X144357143Y-98454819D01*
X144357143Y-98454819D02*
X144595238Y-98454819D01*
X144595238Y-98454819D02*
X144690476Y-98502438D01*
X144690476Y-98502438D02*
X144738095Y-98550057D01*
X144738095Y-98550057D02*
X144785714Y-98645295D01*
X144785714Y-98645295D02*
X144785714Y-98740533D01*
X144785714Y-98740533D02*
X144738095Y-98883390D01*
X144738095Y-98883390D02*
X144166667Y-99454819D01*
X144166667Y-99454819D02*
X144785714Y-99454819D01*
X155261905Y-84454819D02*
X155261905Y-83454819D01*
X155833333Y-84454819D02*
X155404762Y-83883390D01*
X155833333Y-83454819D02*
X155261905Y-84026247D01*
X156166667Y-83454819D02*
X156785714Y-83454819D01*
X156785714Y-83454819D02*
X156452381Y-83835771D01*
X156452381Y-83835771D02*
X156595238Y-83835771D01*
X156595238Y-83835771D02*
X156690476Y-83883390D01*
X156690476Y-83883390D02*
X156738095Y-83931009D01*
X156738095Y-83931009D02*
X156785714Y-84026247D01*
X156785714Y-84026247D02*
X156785714Y-84264342D01*
X156785714Y-84264342D02*
X156738095Y-84359580D01*
X156738095Y-84359580D02*
X156690476Y-84407200D01*
X156690476Y-84407200D02*
X156595238Y-84454819D01*
X156595238Y-84454819D02*
X156309524Y-84454819D01*
X156309524Y-84454819D02*
X156214286Y-84407200D01*
X156214286Y-84407200D02*
X156166667Y-84359580D01*
X158833333Y-99454819D02*
X158500000Y-98978628D01*
X158261905Y-99454819D02*
X158261905Y-98454819D01*
X158261905Y-98454819D02*
X158642857Y-98454819D01*
X158642857Y-98454819D02*
X158738095Y-98502438D01*
X158738095Y-98502438D02*
X158785714Y-98550057D01*
X158785714Y-98550057D02*
X158833333Y-98645295D01*
X158833333Y-98645295D02*
X158833333Y-98788152D01*
X158833333Y-98788152D02*
X158785714Y-98883390D01*
X158785714Y-98883390D02*
X158738095Y-98931009D01*
X158738095Y-98931009D02*
X158642857Y-98978628D01*
X158642857Y-98978628D02*
X158261905Y-98978628D01*
X159166667Y-98454819D02*
X159785714Y-98454819D01*
X159785714Y-98454819D02*
X159452381Y-98835771D01*
X159452381Y-98835771D02*
X159595238Y-98835771D01*
X159595238Y-98835771D02*
X159690476Y-98883390D01*
X159690476Y-98883390D02*
X159738095Y-98931009D01*
X159738095Y-98931009D02*
X159785714Y-99026247D01*
X159785714Y-99026247D02*
X159785714Y-99264342D01*
X159785714Y-99264342D02*
X159738095Y-99359580D01*
X159738095Y-99359580D02*
X159690476Y-99407200D01*
X159690476Y-99407200D02*
X159595238Y-99454819D01*
X159595238Y-99454819D02*
X159309524Y-99454819D01*
X159309524Y-99454819D02*
X159214286Y-99407200D01*
X159214286Y-99407200D02*
X159166667Y-99359580D01*
D12*
G04 #@! TO.C,K1*
X133140000Y-84700000D02*
X139840000Y-84700000D01*
X133140000Y-85200000D02*
X133140000Y-84700000D01*
X133140000Y-87400000D02*
X133140000Y-86800000D01*
X133140000Y-89800000D02*
X133140000Y-89000000D01*
X133140000Y-92800000D02*
X133140000Y-91400000D01*
X133140000Y-94900000D02*
X133140000Y-94400000D01*
X139800000Y-91490000D02*
X139800000Y-92890000D01*
X139800000Y-92890000D02*
X140400000Y-92890000D01*
X139800000Y-94390000D02*
X140400000Y-94390000D01*
X139800000Y-94890000D02*
X133140000Y-94900000D01*
X139800000Y-94890000D02*
X139800000Y-94390000D01*
X139840000Y-84700000D02*
X139840000Y-85200000D01*
X139840000Y-86800000D02*
X139840000Y-87400000D01*
X139840000Y-89000000D02*
X139840000Y-89800000D01*
G04 #@! TO.C,R4*
X169727064Y-96090000D02*
X168272936Y-96090000D01*
X169727064Y-97910000D02*
X168272936Y-97910000D01*
G04 #@! TO.C,J4.1*
X167620000Y-74620000D02*
X169000000Y-74620000D01*
X167620000Y-76000000D02*
X167620000Y-74620000D01*
X167620000Y-77270000D02*
X167620000Y-82460000D01*
X167620000Y-77270000D02*
X170380000Y-77270000D01*
X167620000Y-82460000D02*
X170380000Y-82460000D01*
X170380000Y-77270000D02*
X170380000Y-82460000D01*
G04 #@! TO.C,J0*
X134960000Y-106880000D02*
X134960000Y-105500000D01*
X136340000Y-106880000D02*
X134960000Y-106880000D01*
X137610000Y-104120000D02*
X150420000Y-104120000D01*
X137610000Y-106880000D02*
X137610000Y-104120000D01*
X137610000Y-106880000D02*
X150420000Y-106880000D01*
X150420000Y-106880000D02*
X150420000Y-104120000D01*
G04 #@! TO.C,K4*
X163140000Y-84700000D02*
X169840000Y-84700000D01*
X163140000Y-85200000D02*
X163140000Y-84700000D01*
X163140000Y-87400000D02*
X163140000Y-86800000D01*
X163140000Y-89800000D02*
X163140000Y-89000000D01*
X163140000Y-92800000D02*
X163140000Y-91400000D01*
X163140000Y-94900000D02*
X163140000Y-94400000D01*
X169800000Y-91490000D02*
X169800000Y-92890000D01*
X169800000Y-92890000D02*
X170400000Y-92890000D01*
X169800000Y-94390000D02*
X170400000Y-94390000D01*
X169800000Y-94890000D02*
X163140000Y-94900000D01*
X169800000Y-94890000D02*
X169800000Y-94390000D01*
X169840000Y-84700000D02*
X169840000Y-85200000D01*
X169840000Y-86800000D02*
X169840000Y-87400000D01*
X169840000Y-89000000D02*
X169840000Y-89800000D01*
G04 #@! TO.C,U0*
X157940000Y-102940000D02*
X157995000Y-102940000D01*
X157940000Y-107060000D02*
X157940000Y-102940000D01*
X157995000Y-107060000D02*
X157940000Y-107060000D01*
X168005000Y-102940000D02*
X168060000Y-102940000D01*
X168060000Y-102940000D02*
X168060000Y-107060000D01*
X168060000Y-107060000D02*
X168005000Y-107060000D01*
X157990000Y-107600000D02*
X157660000Y-107840000D01*
X157660000Y-107360000D01*
X157990000Y-107600000D01*
G36*
X157990000Y-107600000D02*
G01*
X157660000Y-107840000D01*
X157660000Y-107360000D01*
X157990000Y-107600000D01*
G37*
G04 #@! TO.C,J1.2*
X131620000Y-74620000D02*
X133000000Y-74620000D01*
X131620000Y-76000000D02*
X131620000Y-74620000D01*
X131620000Y-77270000D02*
X131620000Y-82460000D01*
X131620000Y-77270000D02*
X134380000Y-77270000D01*
X131620000Y-82460000D02*
X134380000Y-82460000D01*
X134380000Y-77270000D02*
X134380000Y-82460000D01*
G04 #@! TO.C,D4*
X161715000Y-95865000D02*
X161715000Y-98135000D01*
X161715000Y-98135000D02*
X165600000Y-98135000D01*
X165600000Y-95865000D02*
X161715000Y-95865000D01*
G04 #@! TO.C,R2*
X149727064Y-96090000D02*
X148272936Y-96090000D01*
X149727064Y-97910000D02*
X148272936Y-97910000D01*
G04 #@! TO.C,J2.1*
X147620000Y-74620000D02*
X149000000Y-74620000D01*
X147620000Y-76000000D02*
X147620000Y-74620000D01*
X147620000Y-77270000D02*
X147620000Y-82460000D01*
X147620000Y-77270000D02*
X150380000Y-77270000D01*
X147620000Y-82460000D02*
X150380000Y-82460000D01*
X150380000Y-77270000D02*
X150380000Y-82460000D01*
G04 #@! TO.C,D3*
X151715000Y-95865000D02*
X151715000Y-98135000D01*
X151715000Y-98135000D02*
X155600000Y-98135000D01*
X155600000Y-95865000D02*
X151715000Y-95865000D01*
G04 #@! TO.C,R1*
X139727064Y-96090000D02*
X138272936Y-96090000D01*
X139727064Y-97910000D02*
X138272936Y-97910000D01*
G04 #@! TO.C,J4.2*
X161620000Y-74620000D02*
X163000000Y-74620000D01*
X161620000Y-76000000D02*
X161620000Y-74620000D01*
X161620000Y-77270000D02*
X161620000Y-82460000D01*
X161620000Y-77270000D02*
X164380000Y-77270000D01*
X161620000Y-82460000D02*
X164380000Y-82460000D01*
X164380000Y-77270000D02*
X164380000Y-82460000D01*
G04 #@! TO.C,K2*
X143140000Y-84700000D02*
X149840000Y-84700000D01*
X143140000Y-85200000D02*
X143140000Y-84700000D01*
X143140000Y-87400000D02*
X143140000Y-86800000D01*
X143140000Y-89800000D02*
X143140000Y-89000000D01*
X143140000Y-92800000D02*
X143140000Y-91400000D01*
X143140000Y-94900000D02*
X143140000Y-94400000D01*
X149800000Y-91490000D02*
X149800000Y-92890000D01*
X149800000Y-92890000D02*
X150400000Y-92890000D01*
X149800000Y-94390000D02*
X150400000Y-94390000D01*
X149800000Y-94890000D02*
X143140000Y-94900000D01*
X149800000Y-94890000D02*
X149800000Y-94390000D01*
X149840000Y-84700000D02*
X149840000Y-85200000D01*
X149840000Y-86800000D02*
X149840000Y-87400000D01*
X149840000Y-89000000D02*
X149840000Y-89800000D01*
G04 #@! TO.C,J2.2*
X141620000Y-74620000D02*
X143000000Y-74620000D01*
X141620000Y-76000000D02*
X141620000Y-74620000D01*
X141620000Y-77270000D02*
X141620000Y-82460000D01*
X141620000Y-77270000D02*
X144380000Y-77270000D01*
X141620000Y-82460000D02*
X144380000Y-82460000D01*
X144380000Y-77270000D02*
X144380000Y-82460000D01*
G04 #@! TO.C,J3.2*
X151620000Y-74620000D02*
X153000000Y-74620000D01*
X151620000Y-76000000D02*
X151620000Y-74620000D01*
X151620000Y-77270000D02*
X151620000Y-82460000D01*
X151620000Y-77270000D02*
X154380000Y-77270000D01*
X151620000Y-82460000D02*
X154380000Y-82460000D01*
X154380000Y-77270000D02*
X154380000Y-82460000D01*
G04 #@! TO.C,D1*
X131715000Y-95865000D02*
X131715000Y-98135000D01*
X131715000Y-98135000D02*
X135600000Y-98135000D01*
X135600000Y-95865000D02*
X131715000Y-95865000D01*
G04 #@! TO.C,J1.1*
X137620000Y-74620000D02*
X139000000Y-74620000D01*
X137620000Y-76000000D02*
X137620000Y-74620000D01*
X137620000Y-77270000D02*
X137620000Y-82460000D01*
X137620000Y-77270000D02*
X140380000Y-77270000D01*
X137620000Y-82460000D02*
X140380000Y-82460000D01*
X140380000Y-77270000D02*
X140380000Y-82460000D01*
G04 #@! TO.C,J3.1*
X157620000Y-74620000D02*
X159000000Y-74620000D01*
X157620000Y-76000000D02*
X157620000Y-74620000D01*
X157620000Y-77270000D02*
X157620000Y-82460000D01*
X157620000Y-77270000D02*
X160380000Y-77270000D01*
X157620000Y-82460000D02*
X160380000Y-82460000D01*
X160380000Y-77270000D02*
X160380000Y-82460000D01*
G04 #@! TO.C,D2*
X141715000Y-95865000D02*
X141715000Y-98135000D01*
X141715000Y-98135000D02*
X145600000Y-98135000D01*
X145600000Y-95865000D02*
X141715000Y-95865000D01*
G04 #@! TO.C,K3*
X153140000Y-84700000D02*
X159840000Y-84700000D01*
X153140000Y-85200000D02*
X153140000Y-84700000D01*
X153140000Y-87400000D02*
X153140000Y-86800000D01*
X153140000Y-89800000D02*
X153140000Y-89000000D01*
X153140000Y-92800000D02*
X153140000Y-91400000D01*
X153140000Y-94900000D02*
X153140000Y-94400000D01*
X159800000Y-91490000D02*
X159800000Y-92890000D01*
X159800000Y-92890000D02*
X160400000Y-92890000D01*
X159800000Y-94390000D02*
X160400000Y-94390000D01*
X159800000Y-94890000D02*
X153140000Y-94900000D01*
X159800000Y-94890000D02*
X159800000Y-94390000D01*
X159840000Y-84700000D02*
X159840000Y-85200000D01*
X159840000Y-86800000D02*
X159840000Y-87400000D01*
X159840000Y-89000000D02*
X159840000Y-89800000D01*
G04 #@! TO.C,R3*
X159727064Y-96090000D02*
X158272936Y-96090000D01*
X159727064Y-97910000D02*
X158272936Y-97910000D01*
G04 #@! TD*
M02*
